<svg width="8.500000in" height="11.000000in" viewBox="0 0 816.000000 1056.000000" xmlns="http://www.w3.org/2000/svg">
<defs>
<marker
	style="overflow:visible"
	id="Arrow1Sstart"
	refX="0.0"
	refY="0.0"
	orient="auto">
<path
	transform="scale(0.2) translate(6,0)"
	style="fill-rule:evenodd;fill:context-stroke;stroke:context-stroke;stroke-width:1.0pt"
	d="M 0.0,0.0 L 5.0,-5.0 L -12.5,0.0 L 5.0,5.0 L 0.0,0.0 z "
/>
</marker>
</defs>
<circle cx="408" cy="528" r="5" stroke="black" fill="black" stroke-width="1" />
<line x1="504" x2="408" y1="528" y2="528" stroke="red" stroke-width="5" marker-start="url(#Arrow1Sstart)" />
<line x1="408" x2="408" y1="432" y2="528" stroke="green" stroke-width="5" marker-start="url(#Arrow1Sstart)" />
<text x="408" y="528">{a}</text>
<line x1="555.562" x2="487.68" y1="172.118" y2="240" stroke="red" stroke-width="5" marker-start="url(#Arrow1Sstart)" />
<line x1="419.798" x2="487.68" y1="172.118" y2="240" stroke="green" stroke-width="5" marker-start="url(#Arrow1Sstart)" />
<text x="487.68" y="240">{b}</text>
<line x1="215.186" x2="311.186" y1="335.035" y2="335.035" stroke="red" stroke-width="5" marker-start="url(#Arrow1Sstart)" />
<line x1="311.186" x2="311.186" y1="431.035" y2="335.035" stroke="green" stroke-width="5" marker-start="url(#Arrow1Sstart)" />
<text x="311.186" y="335.035">{c}</text>
<circle cx="600" cy="144" r="5" stroke="purple" fill="purple" stroke-width="1" />
<circle cx="600" cy="144" r="5" stroke="brown" fill="brown" stroke-width="1" />
<circle cx="600" cy="144" r="5" stroke="orange" fill="orange" stroke-width="1" />
<line x1="506.507" x2="487.68" y1="145.864" y2="240" stroke="brown" stroke-width="5" marker-start="url(#Arrow1Sstart)" />
<line x1="475.882" x2="408" y1="188.589" y2="528" stroke="purple" stroke-width="5" marker-start="url(#Arrow1Sstart)" />
<line x1="379.068" x2="311.186" y1="-4.3761" y2="335.035" stroke="orange" stroke-width="5" marker-start="url(#Arrow1Sstart)" />
</svg>